<?xml version="1.0" encoding="UTF-8"?>
<!-- Generated by Pixelmator Pro 3.7 -->
<svg width="668" height="701" viewBox="0 0 668 701" xmlns="http://www.w3.org/2000/svg">
    <g id="layer1">
        <g id="g3626">
            <g id="g3619">
                <path id="rect2826" fill="#434d57" fill-rule="evenodd" stroke="#000000" d="M 5.172983 3.710999 C 10.980143 -2.096191 25.701593 0.46698 25.701593 0.46698 L 645.219116 0.46698 C 645.219116 0.46698 659.720703 -0.844543 664.377014 3.652893 C 668.434143 7.571533 667.730591 20.239014 667.730591 20.239014 L 667.730591 684.446716 C 667.730591 684.446716 668.299805 694.568726 665.103333 697.777161 C 661.891541 701.000854 651.719177 700.46698 651.719177 700.46698 L 30.049417 700.46698 L 1.063898 670.756836 L 1.063898 29.814819 C 1.063898 29.814819 -1.74436 10.628357 5.172983 3.710999 Z"/>
                <path id="rect3607" fill="#949fa5" fill-rule="evenodd" stroke="#000000" d="M 158.074326 461.498383 L 158.074326 698.498413 L 508.63681 698.498413 L 508.63681 461.498383 L 158.074326 461.498383 Z M 213.730576 479.029633 L 299.07431 479.029633 L 299.07431 662.685913 L 213.730576 662.685913 L 213.730576 479.029633 Z"/>
                <path id="rect3601" fill="#eeeeee" fill-rule="evenodd" stroke="#000000" d="M 96.826881 14.169922 L 580.288696 14.169922 C 591.334412 14.169922 600.288696 23.124268 600.288696 34.169922 L 600.288696 386.405762 C 600.288696 397.451477 591.334412 406.405762 580.288696 406.405762 L 96.826881 406.405762 C 85.781181 406.405762 76.826881 397.451477 76.826881 386.405762 L 76.826881 34.169922 C 76.826881 23.124268 85.781181 14.169922 96.826881 14.169922 Z"/>
                <path id="rect3603" fill="#333333" fill-rule="evenodd" stroke="#000000" d="M 25.482157 49.97229 L 62.824322 49.97229 L 62.824322 78.169434 L 25.482157 78.169434 Z"/>
                <path id="rect3605" fill="#333333" fill-rule="evenodd" stroke="#000000" d="M 616.860107 49.97229 L 654.202271 49.97229 L 654.202271 78.169434 L 616.860107 78.169434 Z"/>
            </g>
        </g>
    </g>
</svg>
