<?xml version="1.0" encoding="UTF-8"?>
<!-- Generated by Pixelmator Pro 3.7 -->
<svg width="478" height="451" viewBox="0 0 478 451" xmlns="http://www.w3.org/2000/svg">
    <path id="Shape" fill="#ffffff" fill-rule="evenodd" stroke="none" opacity="0.928029" d="M 170.5 0.639587 C 165 0.375702 156.56221 0.564331 151.749359 1.058777 C 146.936508 1.553192 139.286514 2.901306 134.749359 4.054565 C 130.212219 5.207825 123.011551 7.658417 118.747879 9.500305 C 114.484207 11.342224 107.87883 14.921356 104.069244 17.453949 C 100.259674 19.986572 94.073135 25.359283 90.321381 29.393372 C 86.569626 33.427429 81.80603 39.892517 79.735626 43.760223 C 77.665222 47.62793 75.077728 54.286102 73.985626 58.556183 C 72.64325 63.80484 72 69.617767 72 76.5 C 72 83.392883 72.647537 89.234222 74.005371 94.590027 C 75.108322 98.940521 77.963882 106.549988 80.351074 111.5 C 82.738266 116.449982 87.410187 124.100006 90.733109 128.5 C 94.05603 132.899994 99.199799 138.75 102.163696 141.5 C 105.127594 144.25 111.998398 150.324982 117.432144 155 C 122.865891 159.674988 131.327408 168 136.235504 173.5 C 141.1436 179 148.451828 188.450012 152.476028 194.5 C 156.500214 200.549988 161.526871 208.195465 163.646362 211.489929 C 165.765869 214.784363 170.38678 220.542847 173.915054 224.286499 C 177.443344 228.030151 184.26001 233.721802 189.063202 236.934601 C 193.866394 240.1474 201.32962 244.138184 205.648132 245.803009 C 209.966675 247.467834 217.262207 249.543243 221.860474 250.414978 C 226.45874 251.286743 234.171509 252 239 252 C 243.828491 252 251.54126 251.286743 256.139526 250.414978 C 260.737793 249.543243 267.968842 247.492706 272.208557 245.858276 C 276.448273 244.223846 283.386444 240.621796 287.626709 237.853699 C 291.867004 235.085632 297.953552 230.324432 301.152374 227.273254 C 304.351196 224.222107 308.73642 219.424927 310.897308 216.612854 C 313.058197 213.800781 317.603485 206.325012 320.997955 200 C 324.392426 193.674988 329.539398 185.350006 332.435669 181.5 C 335.33194 177.649994 340.581268 171.650543 344.10083 168.167877 C 347.620361 164.685181 354.774994 158.635284 360 154.723602 C 365.225006 150.811951 372.136536 145.111389 375.358978 142.055756 C 378.581421 139.000092 383.851837 133.007507 387.070984 128.738892 C 390.290131 124.470276 394.970551 116.820282 397.471893 111.738892 C 399.973236 106.657501 402.915344 98.940521 404.009888 94.590027 C 405.348358 89.27005 406 83.346771 406 76.5 C 406 69.617767 405.35675 63.80484 404.014374 58.556183 C 402.922272 54.286102 400.334778 47.62793 398.264374 43.760223 C 396.19397 39.892517 391.430389 33.427429 387.678619 29.393372 C 383.92688 25.359283 377.710052 19.966431 373.863464 17.409241 C 370.016876 14.85202 363.266266 11.240051 358.862122 9.382599 C 354.457947 7.525177 347.39978 5.127258 343.177277 4.053955 C 338.954773 2.980621 330.579865 1.605682 324.566406 0.998505 C 318.552917 0.391357 310.002899 0.18045 305.566406 0.529816 C 301.129883 0.879211 293.592255 1.811615 288.816132 2.601837 C 284.039978 3.392029 275.039978 5.607025 268.816132 7.524017 C 262.592255 9.44101 253.555817 11.539246 248.735138 12.186768 C 242.030579 13.087341 237.681915 13.089294 230.235138 12.195007 C 224.880829 11.552032 217.575012 10.099762 214 8.967804 C 210.424988 7.835815 204.135681 6.022339 200.023743 4.937866 C 195.911804 3.853394 189.836823 2.550568 186.523743 2.042725 C 183.210693 1.534912 176 0.903473 170.5 0.639587 Z M 73.5 145.488556 C 69.418579 145.22226 63.982452 145.606415 60.461876 146.409912 C 57.1409 147.167816 51.5159 149.12085 47.961876 150.749939 C 44.407845 152.379028 38.800003 155.733917 35.5 158.205261 C 32.199997 160.676575 26.949036 165.394684 23.831184 168.689941 C 20.713341 171.985199 16.438339 177.350494 14.331184 180.612823 C 12.224037 183.875153 9.057785 189.684357 7.295082 193.522186 C 5.532379 197.359985 3.352592 203.200012 2.451118 206.5 C 1.549637 209.799988 0.564438 218.350006 0.26178 225.5 C -0.053711 232.953186 0.193756 242.13028 0.841759 247.00824 C 1.463402 251.687775 2.913094 259.112762 4.063293 263.50824 C 5.213501 267.903717 7.519363 274.780701 9.187431 278.790405 C 10.855499 282.80014 14.340675 289.328949 16.932259 293.298859 C 19.523842 297.268768 23.788719 302.40451 26.40976 304.71167 C 29.030807 307.018799 33.269318 309.920135 35.828674 311.159119 C 39.197426 312.789886 42.282082 313.411774 47.00248 313.411774 C 52.189507 313.411774 54.849815 312.787323 60.011459 310.358276 C 63.580154 308.678833 69.093506 305.18158 72.263351 302.586548 C 75.433197 299.991547 80.948135 294.249969 84.518768 289.827515 C 88.089417 285.405029 93.450806 277.842194 96.432953 273.021149 C 99.415115 268.200134 104.380951 259.219208 107.468155 253.063507 C 110.555344 246.907837 114.385757 237.962799 115.980179 233.185669 C 117.5746 228.408569 119.412384 220.458801 120.064133 215.519592 C 120.722778 210.527954 120.967865 203.166748 120.615921 198.946503 C 120.267654 194.770508 119.29425 188.686707 118.452805 185.42691 C 117.611359 182.167114 115.658264 176.799988 114.112595 173.5 C 112.566925 170.200012 109.397018 165.103607 107.068359 162.174683 C 104.7397 159.245758 100.092514 155.077179 96.741287 152.911163 C 93.390045 150.745178 88.364807 148.291748 85.574066 147.459106 C 82.783325 146.626495 77.350006 145.739716 73.5 145.488556 Z M 409.832855 145.510162 C 405.350891 145.217804 400.070557 145.58432 396.25116 146.452881 C 392.814301 147.234436 387.639282 149.134552 384.75116 150.675354 C 381.863007 152.216156 376.950714 156.041931 373.83493 159.177063 C 370.269165 162.764984 366.846954 167.586731 364.599976 172.18869 C 362.636505 176.2099 360.352203 182.167114 359.523682 185.42691 C 358.69516 188.686707 357.732361 194.770508 357.384094 198.946503 C 357.032135 203.166748 357.277222 210.527954 357.935883 215.519592 C 358.587616 220.458801 360.425385 228.408569 362.019836 233.185669 C 363.614258 237.962799 367.444672 246.907837 370.53186 253.063507 C 373.619049 259.219208 378.584869 268.200134 381.567047 273.021149 C 384.549194 277.842194 389.910583 285.405029 393.481232 289.827515 C 397.05188 294.249969 402.538818 299.958221 405.6745 302.512512 C 408.81015 305.066803 413.531464 308.249084 416.166321 309.58429 C 418.801178 310.919464 423.203888 312.493774 425.950134 313.082733 C 429.559174 313.85672 432.448425 313.841095 436.373016 313.026367 C 439.632172 312.349762 443.928314 310.414185 447.119751 308.18454 C 450.044067 306.14151 454.564453 301.828857 457.164978 298.60083 C 459.765503 295.372833 463.486938 289.698853 465.434875 285.991974 C 467.382751 282.285126 470.279724 275.257965 471.872559 270.376129 C 473.465393 265.494263 475.555542 256.993103 476.517334 251.48465 C 477.868896 243.743652 478.146545 238.180084 477.739868 226.98465 C 477.425903 218.34198 476.555176 210.080078 475.580994 206.5 C 474.682983 203.200012 472.142151 196.707245 469.934631 192.071625 C 467.727112 187.436005 463.940674 180.868103 461.520325 177.476288 C 459.099976 174.084473 453.775757 168.20224 449.688721 164.404663 C 445.601746 160.607086 439.762848 156.005646 436.713501 154.179199 C 433.664154 152.352783 428.018433 149.762695 424.16748 148.423462 C 420.316528 147.084229 413.865936 145.773254 409.832855 145.510162 Z M 156.539902 258.109558 C 153.217957 258.16983 148.475006 258.609436 146 259.086456 C 143.524994 259.563507 137.813141 261.773285 133.306961 263.997101 C 127.539825 266.843231 123.080063 270.033051 118.244888 274.770203 C 114.466919 278.471588 109.487518 284.424988 107.179565 288 C 104.871597 291.575012 101.610046 297.796051 99.931656 301.824554 C 98.253265 305.853088 95.966446 312.603088 94.849823 316.824554 C 93.644867 321.380005 92.591949 329.377899 92.259567 336.5 C 91.904343 344.111145 92.158463 351.243042 92.954376 356 C 93.644547 360.125 95.476349 366.975494 97.025024 371.223297 C 98.573715 375.47113 102.15506 383.371979 104.983582 388.780701 C 107.812103 394.189453 113.081451 402.638977 116.693253 407.557404 C 120.305038 412.47583 127.19104 420.368622 131.995468 425.096924 C 136.799896 429.825256 144.542557 436.230164 149.201385 439.330017 C 153.860214 442.429871 160.783279 446.170715 164.585983 447.643005 C 169.733826 449.636047 173.415863 450.342896 179 450.409912 C 185.336639 450.486023 187.402756 450.056702 192.319977 447.642212 C 196.470551 445.604126 199.412231 443.166016 202.5755 439.142212 C 205.015076 436.039001 208.404633 430.158203 210.107849 426.073792 C 211.811066 421.989349 214.261658 414.480591 215.553558 409.387665 C 216.84549 404.294708 218.592804 394.136505 219.436493 386.813873 C 220.280151 379.491241 221.270203 366.452942 221.636627 357.839874 C 222.048248 348.163696 221.872528 338.4198 221.176727 332.339874 C 220.557404 326.927948 219.212372 319.350006 218.187805 315.5 C 217.163208 311.649994 214.961182 305.274811 213.294403 301.332916 C 211.627594 297.391022 208.162445 291.004913 205.594086 287.141541 C 203.025726 283.278137 197.831055 277.253326 194.050415 273.752991 C 190.269745 270.252686 184.324265 265.959381 180.838242 264.212311 C 177.352203 262.46524 171.817963 260.352753 168.539902 259.517914 C 165.261841 258.683044 159.861847 258.049316 156.539902 258.109558 Z M 320.113525 258.065796 C 317.026093 258.10202 312.024994 258.782898 309 259.578918 C 305.975006 260.374939 300.647797 262.457825 297.161774 264.20752 C 293.67572 265.957214 287.730255 270.252686 283.949585 273.752991 C 280.168945 277.253326 274.979584 283.270172 272.417725 287.123779 C 269.855835 290.977386 266.30304 297.588501 264.522583 301.815155 C 262.742096 306.041809 260.542511 312.468292 259.634583 316.096222 C 258.726624 319.724152 257.551331 326.02417 257.022766 330.096222 C 256.494202 334.168304 256.047852 342.04715 256.030884 347.604797 C 256.013885 353.162415 256.455627 363.512421 257.012482 370.604797 C 257.569336 377.697144 258.733673 388.422913 259.599915 394.439819 C 260.466125 400.456726 262.287445 409.23172 263.647247 413.939819 C 265.00708 418.647919 267.68045 425.753784 269.588104 429.730652 C 271.645569 434.019836 275.056 438.960754 277.971497 441.876282 C 280.800995 444.70575 284.926025 447.578064 287.693237 448.64563 C 290.883118 449.876221 294.854614 450.464172 299.5 450.393433 C 304.480957 450.317566 308.494232 449.519531 313.414001 447.626526 C 317.216705 446.16333 324.191711 442.403015 328.914001 439.270325 C 333.636292 436.137634 341.774994 429.262878 347 423.993103 C 352.225006 418.723297 359.374023 410.381531 362.886749 405.455841 C 366.399445 400.530121 371.923553 391.056 375.162537 384.402222 C 378.882294 376.760712 382.008179 368.502655 383.64859 361.983459 C 386.002502 352.628601 386.197479 350.391174 385.731598 338.081238 C 385.388031 329.00412 384.538116 321.954498 383.168762 316.824554 C 382.041931 312.603088 379.746735 305.853088 378.068359 301.824554 C 376.389954 297.796051 373.109131 291.575012 370.777588 288 C 368.446075 284.424988 363.566284 278.520935 359.933594 274.879883 C 355.125458 270.060638 351.039764 267.134613 344.914368 264.123657 C 340.286469 261.848785 334.07608 259.540344 331.113525 258.993774 C 328.15094 258.447205 323.200928 258.029602 320.113525 258.065796 Z"/>
</svg>
